# File created by Blade
# Date/Time:  Wed Apr 08 17:16:55 2015
#---------------------------------------------------------
:version 1.10
:name HOM
:units
  mass 1.0
  length 1.000000
  angle deg
:documentation
     Acclaim Skeleton File
:root
   axis xyz
   order TX TY TZ RX RY RZ
   position 0.000000 0.000000 0.000000
   orientation 0 0 0
:bonedata
   begin
      id 1
      name Spine_dum
      direction 0.000000 1.000000 0.000000
      length 5.893853
      axis 0.0 0.0 0.0 xyz
   end
   begin
      id 2
      name LeftUpLeg_dum
      direction 1.000000 0.000000 0.000000
      length 3.697939
      axis 0.0 0.0 0.0 xyz
   end
   begin
      id 3
      name RightUpLeg_dum
      direction -1.000000 0.000000 0.000000
      length 3.697939
      axis 0.0 0.0 0.0 xyz
   end
   begin
      id 4
      name Spine
      direction 0.000000 1.000000 0.000000
      length 0.000000
      axis 0.0 0.0 0.0 xyz
      dof rx ry rz
   end
   begin
      id 5
      name Spine_dum1
      direction 0.000000 1.000000 0.000000
      length 16.447146
      axis 0.0 0.0 0.0 xyz
   end
   begin
      id 6
      name Spine_dum2
      direction 0.000000 1.000000 0.000000
      length 10.900383
      axis 0.0 0.0 0.0 xyz
   end
   begin
      id 7
      name Spine_dum3
      direction 0.000000 1.000000 0.000000
      length 10.900383
      axis 0.0 0.0 0.0 xyz
   end
   begin
      id 8
      name Head
      direction 0.000000 1.000000 0.000000
      length 4.527550
      axis 0.0 0.0 0.0 xyz
      dof rx ry rz
   end
   begin
      id 9
      name LeftShoulder
      direction 1.000000 0.000000 0.000000
      length 8.219464
      axis 0.0 0.0 -90.0 xyz
      dof rx ry rz
   end
   begin
      id 10
      name LeftArm
      direction 1.000000 0.000000 0.000000
      length 11.094937
      axis 0.0 0.0 -90.0 xyz
      dof rx ry rz
   end
   begin
      id 11
      name LeftForeArm
      direction 1.000000 0.000000 0.000000
      length 9.103875
      axis 0.0 0.0 -90.0 xyz
      dof ry rz rx
   end
   begin
      id 12
      name LeftHand
      direction 0.000000 0.000000 0.000000
      length 0.000000
      axis 0.0 0.0 -90.0 xyz
      dof rx ry rz
   end
   begin
      id 13
      name LeftHand_dum1
      direction 0.000000 0.000000 0.000000
      length 0.000000
      axis 0.0 0.0 -90.0 xyz
   end
   begin
      id 14
      name LeftHand_dum2
      direction 1.000000 0.000000 0.000000
      length 3.937000
      axis 0.0 0.0 -90.0 xyz
   end
   begin
      id 15
      name LeftHandThumb1
      direction 0.000000 0.000000 1.000000
      length 3.937000
      axis 0.0 0.0 -90.0 xyz
      dof rx rz ry
   end
   begin
      id 16
      name RightShoulder
      direction -1.000000 0.000000 0.000000
      length 8.219464
      axis 0.0 0.0 90.0 xyz
      dof rx ry rz
   end
   begin
      id 17
      name RightArm
      direction -1.000000 0.000000 0.000000
      length 11.094937
      axis 0.0 0.0 90.0 xyz
      dof rx ry rz
   end
   begin
      id 18
      name RightForeArm
      direction -1.000000 0.000000 0.000000
      length 9.103875
      axis 0.0 0.0 90.0 xyz
      dof ry rz rx
   end
   begin
      id 19
      name RightHand
      direction 0.000000 0.000000 0.000000
      length 0.000000
      axis 0.0 0.0 90.0 xyz
      dof rx ry rz
   end
   begin
      id 20
      name RightHand_dum1
      direction 0.000000 0.000000 0.000000
      length 0.000000
      axis 0.0 0.0 90.0 xyz
   end
   begin
      id 21
      name RightHand_dum2
      direction -1.000000 0.000000 0.000000
      length 3.937000
      axis 0.0 0.0 90.0 xyz
   end
   begin
      id 22
      name RightHandThumb1
      direction 0.000000 0.000000 1.000000
      length 3.937000
      axis 0.0 0.0 90.0 xyz
      dof rx rz ry
   end
   begin
      id 23
      name LeftUpLeg
      direction 0.000000 -1.000000 0.000000
      length 16.181467
      axis 0.0 0.0 0.0 xyz
      dof rx ry rz
   end
   begin
      id 24
      name LeftLeg
      direction 0.000000 -1.000000 0.000000
      length 16.501392
      axis 0.0 0.0 0.0 xyz
      dof rx ry rz
   end
   begin
      id 25
      name LeftFoot
      direction 0.000000 -0.258819 0.965926
      length 6.408245
      axis 15.0 0.0 0.0 xyz
      dof rx ry rz
   end
   begin
      id 26
      name LeftToeBase
      direction 0.000000 0.000000 1.000000
      length 2.952750
      axis 0.0 0.0 0.0 xyz
      dof rx ry rz
   end
   begin
      id 27
      name RightUpLeg
      direction 0.000000 -1.000000 0.000000
      length 16.181467
      axis 0.0 0.0 0.0 xyz
      dof rx ry rz
   end
   begin
      id 28
      name RightLeg
      direction 0.000000 -1.000000 0.000000
      length 16.501392
      axis 0.0 0.0 0.0 xyz
      dof rx ry rz
   end
   begin
      id 29
      name RightFoot
      direction 0.000000 -0.258819 0.965926
      length 6.408245
      axis 15.0 0.0 0.0 xyz
      dof rx ry rz
   end
   begin
      id 30
      name RightToeBase
      direction 0.000000 0.000000 1.000000
      length 2.952750
      axis 0.0 0.0 0.0 xyz
      dof rx ry rz
   end
:hierarchy
   begin
      root Spine_dum LeftUpLeg_dum RightUpLeg_dum
      Spine_dum Spine
      LeftUpLeg_dum LeftUpLeg
      RightUpLeg_dum RightUpLeg
      Spine Spine_dum1 Spine_dum2 Spine_dum3
      Spine_dum1 Head
      Spine_dum2 LeftShoulder
      Spine_dum3 RightShoulder
      LeftShoulder LeftArm
      LeftArm LeftForeArm
      LeftForeArm LeftHand
      LeftHand LeftHand_dum1 LeftHand_dum2
      LeftHand_dum1 LeftHandThumb1
      RightShoulder RightArm
      RightArm RightForeArm
      RightForeArm RightHand
      RightHand RightHand_dum1 RightHand_dum2
      RightHand_dum1 RightHandThumb1
      LeftUpLeg LeftLeg
      LeftLeg LeftFoot
      LeftFoot LeftToeBase
      RightUpLeg RightLeg
      RightLeg RightFoot
      RightFoot RightToeBase
   end

# File created by Blade
# Date/Time:  Wed Apr 08 17:17:01 2015
# Frame Rate: 120.000 fps
#------------------------------------------------------
:FULLY-SPECIFIED
:DEGREES
335
root 4.410758 36.837379 4.976283 -8.468476 -27.409387 -8.429851
Spine 16.849749 -0.215718 6.030732
Head 14.966301 12.897950 8.303273
LeftShoulder -6.938411 17.431265 14.018963
LeftArm 21.025386 29.176903 -77.324047
LeftForeArm 22.210581 -0.000000 29.659140
LeftHand -10.446841 -0.000000 -14.410929
LeftHandThumb1 -26.253704 0.000000 33.147579
RightShoulder -27.053280 -48.425862 17.564862
RightArm 54.457955 -11.247649 54.059728
RightForeArm 12.120191 -0.000000 14.175573
RightHand 1.787282 -0.000000 8.492866
RightHandThumb1 -24.326973 -0.000000 -32.862282
LeftUpLeg 12.646164 2.972157 6.161990
LeftLeg 11.579517 -0.000000 -0.000000
LeftFoot -7.552169 -19.702073 -18.456198
LeftToeBase 17.623243 -0.000000 -0.000000
RightUpLeg -65.388962 5.942151 5.327238
RightLeg 139.027726 -0.000000 -0.000000
RightFoot 28.406365 4.168857 13.025577
RightToeBase -20.277050 -0.000000 0.000000
336
root 4.385181 36.862705 4.983075 -8.280284 -27.429232 -8.926354
Spine 16.848475 -0.076473 6.707638
Head 14.795150 12.994039 8.154008
LeftShoulder -6.859951 17.430338 14.042778
LeftArm 21.102524 29.392042 -77.305148
LeftForeArm 22.311130 -0.000000 29.584231
LeftHand -10.378652 0.000000 -14.355070
LeftHandThumb1 -26.253704 0.000000 33.147579
RightShoulder -26.767239 -48.339091 17.500974
RightArm 54.668487 -11.115878 53.872477
RightForeArm 12.455467 0.000000 13.824523
RightHand 1.770221 -0.000000 8.690491
RightHandThumb1 -24.326973 -0.000000 -32.862282
LeftUpLeg 12.664235 2.714269 6.538889
LeftLeg 11.689747 -0.000000 -0.000000
LeftFoot -7.797156 -19.368267 -18.082950
LeftToeBase 17.357477 -0.000000 -0.000000
RightUpLeg -65.259583 5.941041 5.240045
RightLeg 139.082934 -0.000000 -0.000000
RightFoot 29.243397 4.347343 13.408747
RightToeBase -19.076779 -0.000000 0.000000
337
root 4.364895 36.888383 4.989795 -8.166047 -27.520272 -9.415526
Spine 16.973001 0.082442 7.408742
Head 14.538367 13.112778 7.951350
LeftShoulder -6.784118 17.377344 14.083271
LeftArm 21.149643 29.645359 -77.317155
LeftForeArm 22.404822 0.000000 29.513811
LeftHand -10.301958 -0.000000 -14.578389
LeftHandThumb1 -26.253704 0.000000 33.147579
RightShoulder -26.448516 -48.251628 17.379487
RightArm 54.922120 -10.993660 53.691346
RightForeArm 12.882370 -0.000000 13.453201
RightHand 1.785072 -0.000000 8.836786
RightHandThumb1 -24.326973 -0.000000 -32.862282
LeftUpLeg 12.780598 2.426061 6.877845
LeftLeg 11.768201 -0.000000 -0.000000
LeftFoot -8.068549 -18.934907 -17.746439
LeftToeBase 17.120482 -0.000000 -0.000000
RightUpLeg -65.090698 5.986678 5.120966
RightLeg 139.110636 -0.000000 -0.000000
RightFoot 30.130380 4.475678 13.960089
RightToeBase -18.643450 -0.000000 0.000000
338
root 4.343627 36.914375 4.995797 -8.009881 -27.571290 -9.906122
Spine 17.038888 0.232194 8.117887
Head 14.281241 13.214542 7.773545
LeftShoulder -6.687063 17.390118 14.167457
LeftArm 21.273491 29.928615 -77.293623
LeftForeArm 22.462477 -0.000000 29.449699
LeftHand -10.322327 -0.000000 -14.607920
LeftHandThumb1 -26.253704 0.000000 33.147579
RightShoulder -26.165404 -48.164244 17.303467
RightArm 55.124799 -10.838991 53.574285
RightForeArm 13.197859 -0.000000 13.115055
RightHand 1.781458 -0.000000 9.017189
RightHandThumb1 -24.326973 -0.000000 -32.862282
LeftUpLeg 12.849849 2.069884 7.197093
LeftLeg 11.841498 -0.000000 -0.000000
LeftFoot -8.320591 -18.434143 -17.458954
LeftToeBase 16.713353 -0.000000 -0.000000
RightUpLeg -64.932068 6.026676 4.963025
RightLeg 139.132748 -0.000000 -0.000000
RightFoot 30.879469 4.737433 14.425014
RightToeBase -18.375192 -0.000000 0.000000
339
root 4.328341 36.938657 5.003790 -7.855719 -27.590519 -10.310078
Spine 17.049807 0.354906 8.728674
Head 14.053270 13.278021 7.671453
LeftShoulder -6.583699 17.378190 14.302350
LeftArm 21.329945 30.222250 -77.329489
LeftForeArm 22.638642 0.000000 29.381214
LeftHand -10.102701 0.000000 -14.758956
LeftHandThumb1 -26.253704 0.000000 33.147579
RightShoulder -25.910073 -48.154832 17.322888
RightArm 55.343554 -10.513396 53.589808
RightForeArm 13.382901 -0.000000 12.753178
RightHand 1.770600 -0.000000 9.414529
RightHandThumb1 -24.326973 -0.000000 -32.862282
LeftUpLeg 12.853712 1.828049 7.448481
LeftLeg 11.954693 -0.000000 -0.000000
LeftFoot -8.544386 -17.957662 -17.024563
LeftToeBase 16.250682 -0.000000 -0.000000
RightUpLeg -64.847887 6.021764 4.711580
RightLeg 139.161502 -0.000000 -0.000000
RightFoot 31.588483 5.067017 14.630354
RightToeBase -18.299890 -0.000000 0.000000
340
root 4.313779 36.963239 5.010381 -7.750979 -27.646558 -10.688133
Spine 17.124952 0.514366 9.318652
Head 13.792149 13.348517 7.611899
LeftShoulder -6.466918 17.375358 14.479493
LeftArm 21.423252 30.500639 -77.359937
LeftForeArm 22.804588 -0.000000 29.328307
LeftHand -10.125172 -0.000000 -14.833354
LeftHandThumb1 -26.253704 0.000000 33.147579
RightShoulder -25.709826 -48.168720 17.379814
RightArm 55.640012 -10.258630 53.525196
RightForeArm 13.681373 0.000000 12.382024
RightHand 1.857326 -0.000000 9.636727
RightHandThumb1 -24.326973 -0.000000 -32.862282
LeftUpLeg 12.910382 1.694974 7.703067
LeftLeg 12.039215 -0.000000 -0.000000
LeftFoot -8.693701 -17.518600 -16.641848
LeftToeBase 15.652559 -0.000000 -0.000000
RightUpLeg -64.741079 6.050094 4.463100
RightLeg 139.208303 -0.000000 -0.000000
RightFoot 32.070830 5.391947 14.726246
RightToeBase -18.100641 -0.000000 0.000000
